Coordinates
version=1
nRows=16
nColumns=63
inDegrees=yes

Units are S.I. units (second, meters, Newtons, ...)
If the header above contains a line with 'inDegrees', this indicates whether rotational values are in degrees (yes) or radians (no).

endheader
time	pelvis_tilt	pelvis_list	pelvis_rotation	pelvis_tx	pelvis_ty	pelvis_tz	hip_flexion_r	hip_adduction_r	hip_rotation_r	knee_angle_r	knee_angle_r_beta	ankle_angle_r	subtalar_angle_r	mtp_angle_r	hip_flexion_l	hip_adduction_l	hip_rotation_l	knee_angle_l	knee_angle_l_beta	ankle_angle_l	subtalar_angle_l	mtp_angle_l	L5_S1_Flex_Ext	L5_S1_Lat_Bending	L5_S1_axial_rotation	L4_L5_Flex_Ext	L4_L5_Lat_Bending	L4_L5_axial_rotation	L3_L4_Flex_Ext	L3_L4_Lat_Bending	L3_L4_axial_rotation	L2_L3_Flex_Ext	L2_L3_Lat_Bending	L2_L3_axial_rotation	L1_L2_Flex_Ext	L1_L2_Lat_Bending	L1_L2_axial_rotation	L1_T12_Flex_Ext	L1_T12_Lat_Bending	L1_T12_axial_rotation	Abs_r3	Abs_r2	Abs_r1	Abs_t1	Abs_t2	neck_flexion	neck_bending	neck_rotation	arm_flex_r	arm_add_r	arm_rot_r	elbow_flex_r	pro_sup_r	wrist_flex_r	wrist_dev_r	arm_flex_l	arm_add_l	arm_rot_l	elbow_flex_l	pro_sup_l	wrist_flex_l	wrist_dev_l
1.023810	-1.184502	1.876166	91.541627	0.200316	0.624227	0.745414	0.153174	0.098794	-21.847927	0.413106	0.007210	7.189590	16.209035	0.000000	5.188617	0.538687	-8.471100	7.081548	0.123596	4.379509	-2.061258	0.000000	-0.705183	-0.250339	-0.706922	-1.309595	-0.332951	-0.751105	-1.158545	-0.608675	-0.751105	-0.805954	-0.608675	-0.618557	-0.654833	-0.510492	-0.574374	-0.402942	-0.387776	-0.530191	-5.037052	-2.831890	-3.931688	0.000000	0.000000	-15.118164	3.226689	4.374811	43.911902	1.032579	14.518693	139.920231	89.337727	-3.948299	20.063000	42.893739	-9.726384	15.294272	146.840813	88.333457	-8.128045	5.356521
1.047619	-1.134193	1.778684	91.339290	0.200439	0.624246	0.745684	0.319881	0.140886	-21.589912	0.428505	0.007479	7.131122	16.052795	0.000000	5.257851	0.495884	-8.689644	7.012977	0.122400	4.291204	-2.118771	0.000000	-0.709190	-0.247934	-0.710342	-1.317036	-0.329753	-0.754739	-1.165128	-0.602828	-0.754739	-0.810533	-0.602828	-0.621549	-0.658553	-0.505588	-0.577153	-0.405231	-0.384050	-0.532757	-5.065670	-2.804684	-3.950710	0.000000	0.000000	-15.376611	3.163863	4.528939	43.556324	1.227901	14.611241	139.824124	89.345916	-3.931488	19.765759	42.013712	-9.614060	15.050032	146.877725	88.370915	-8.409465	5.037800
1.071429	-1.032058	1.679635	91.132762	0.200374	0.624283	0.745964	0.498456	0.222609	-21.353662	0.465061	0.008117	7.036666	15.910528	0.000000	5.320013	0.411412	-8.954368	6.931154	0.120971	4.233193	-2.117041	0.000000	-0.713581	-0.235766	-0.740074	-1.325191	-0.313568	-0.786328	-1.172342	-0.573241	-0.786328	-0.815551	-0.573241	-0.647565	-0.662631	-0.480773	-0.601310	-0.407740	-0.365201	-0.555055	-5.097035	-2.667028	-4.116068	0.000000	0.000000	-15.607023	2.971146	4.829267	43.280560	1.390884	14.900847	139.546124	89.350732	-4.051840	19.250647	40.977853	-9.492260	14.654571	146.988043	88.413152	-8.621154	4.718054
1.095238	-0.885679	1.551690	90.953159	0.200115	0.624311	0.746232	0.705547	0.341038	-21.148022	0.503707	0.008791	6.899843	15.766498	0.000000	5.406333	0.295455	-9.216268	6.834928	0.119292	4.203492	-2.065722	0.000000	-0.715873	-0.215793	-0.790713	-1.329449	-0.287005	-0.840133	-1.176108	-0.524680	-0.840133	-0.818172	-0.524680	-0.691874	-0.664760	-0.440046	-0.642454	-0.409050	-0.334264	-0.593035	-5.113412	-2.441098	-4.397709	0.000000	0.000000	-15.800069	2.727945	5.214172	43.070569	1.473202	15.343154	139.150326	89.354928	-4.308682	18.587333	39.818993	-9.334556	14.172863	147.142568	88.447716	-8.739588	4.408308
1.119048	-0.708947	1.386508	90.780998	0.199706	0.624329	0.746457	0.948538	0.482088	-20.969798	0.545358	0.009518	6.722972	15.644705	0.000000	5.515326	0.163754	-9.442948	6.706152	0.117044	4.189474	-2.038177	0.000000	-0.716229	-0.189902	-0.852419	-1.330108	-0.252569	-0.905695	-1.176692	-0.461727	-0.905695	-0.818578	-0.461727	-0.745866	-0.665090	-0.387247	-0.692590	-0.409253	-0.294158	-0.639314	-5.115949	-2.148205	-4.740897	0.000000	0.000000	-15.943070	2.412736	5.629139	42.913433	1.454378	15.922488	138.662776	89.358488	-4.676209	17.727518	38.562008	-9.121654	13.650037	147.324498	88.465678	-8.772566	4.083343
1.142857	-0.524748	1.187495	90.589727	0.199242	0.624359	0.746630	1.223204	0.627116	-20.797567	0.586502	0.010236	6.507117	15.554982	0.000000	5.638830	0.026921	-9.778088	6.541428	0.114169	4.213237	-1.859792	0.000000	-0.716815	-0.161734	-0.910595	-1.331198	-0.215107	-0.967507	-1.177656	-0.393241	-0.967507	-0.819248	-0.393241	-0.796771	-0.665635	-0.329809	-0.739858	-0.409588	-0.250527	-0.682946	-5.120140	-1.829573	-5.064457	0.000000	0.000000	-16.025007	2.081426	6.042647	42.784768	1.341466	16.590144	138.127509	89.362155	-5.128712	16.649494	37.241485	-8.857451	13.140881	147.524497	88.460550	-8.756406	3.794441
1.166667	-0.350754	0.945889	90.389883	0.198758	0.624387	0.746754	1.536718	0.761454	-20.633367	0.623777	0.010887	6.263439	15.480616	0.000000	5.788454	-0.101273	-10.222879	6.338924	0.110635	4.263532	-1.506624	0.000000	-0.716730	-0.133479	-0.959460	-1.331039	-0.177527	-1.019427	-1.177516	-0.324540	-1.019427	-0.819151	-0.324540	-0.839528	-0.665555	-0.272190	-0.779562	-0.409539	-0.206759	-0.719595	-5.119530	-1.509938	-5.336231	0.000000	0.000000	-16.058093	1.734863	6.416090	42.662752	1.154846	17.295079	137.575254	89.366401	-5.619435	15.394865	35.891426	-8.560071	12.693843	147.740374	88.437176	-8.789417	3.542804
1.190476	-0.196777	0.674361	90.207300	0.198299	0.624417	0.746845	1.872425	0.879935	-20.509475	0.653785	0.011411	6.003559	15.434545	0.000000	5.968756	-0.215083	-10.737208	6.130126	0.106991	4.337717	-1.020686	0.000000	-0.717488	-0.106921	-0.998218	-1.332446	-0.142205	-1.060607	-1.178760	-0.259968	-1.060607	-0.820017	-0.259968	-0.873441	-0.666259	-0.218034	-0.811053	-0.409972	-0.165621	-0.748664	-5.124943	-1.209515	-5.551792	0.000000	0.000000	-16.078756	1.406888	6.740982	42.521475	0.926451	17.995780	137.018675	89.371378	-6.164654	14.016782	34.558991	-8.249146	12.285044	147.967086	88.404356	-8.794085	3.330091
1.214286	-0.068574	0.379415	90.043470	0.197865	0.624426	0.746908	2.222578	0.977932	-20.429807	0.676036	0.011799	5.745633	15.414637	0.000000	6.168880	-0.307778	-11.292916	5.901364	0.102998	4.418192	-0.422828	0.000000	-0.717741	-0.081649	-1.025547	-1.332916	-0.108593	-1.089643	-1.179176	-0.198520	-1.089643	-0.820306	-0.198520	-0.897353	-0.666494	-0.166498	-0.833257	-0.410117	-0.126474	-0.769160	-5.126749	-0.923624	-5.703783	0.000000	0.000000	-16.118532	1.034725	7.000064	42.354018	0.679426	18.676524	136.449763	89.374291	-6.728876	12.566160	33.271101	-7.946062	11.899325	148.208413	88.356853	-8.764139	3.186467
1.238095	0.027145	0.082070	89.894357	0.197530	0.624428	0.746932	2.562313	1.054435	-20.398683	0.687931	0.012007	5.469032	15.420844	0.000000	6.376771	-0.379391	-11.887153	5.678453	0.099108	4.504951	0.256570	0.000000	-0.717580	-0.059708	-1.041203	-1.332618	-0.079411	-1.106278	-1.178912	-0.145173	-1.106278	-0.820122	-0.145173	-0.911052	-0.666345	-0.121756	-0.845977	-0.410025	-0.092487	-0.780902	-5.125602	-0.675424	-5.790856	0.000000	0.000000	-16.220584	0.660047	7.169410	42.131247	0.466259	19.299711	135.862127	89.378155	-7.297981	11.133800	32.051247	-7.684416	11.546563	148.458925	88.308973	-8.714676	3.112349
1.261905	0.078769	-0.218429	89.755570	0.197282	0.624394	0.746909	2.891204	1.095488	-20.410476	0.690916	0.012059	5.191553	15.455810	0.000000	6.589899	-0.416378	-12.521987	5.454748	0.095203	4.588095	1.015093	0.000000	-0.713653	-0.041623	-1.047536	-1.325325	-0.055359	-1.113007	-1.172461	-0.101203	-1.113007	-0.815634	-0.101203	-0.916594	-0.662698	-0.084878	-0.851123	-0.407781	-0.064474	-0.785652	-5.097553	-0.470850	-5.826081	0.000000	0.000000	-16.414129	0.274566	7.293055	41.857671	0.309613	19.855322	135.239131	89.383321	-7.754911	9.771190	30.897258	-7.486941	11.220395	148.714597	88.261019	-8.663285	3.117664
1.285714	0.091095	-0.496335	89.636176	0.197112	0.624342	0.746849	3.181490	1.106918	-20.463642	0.684073	0.011939	4.905251	15.502422	0.000000	6.782233	-0.421884	-13.130012	5.229200	0.091267	4.653500	1.774607	0.000000	-0.708070	-0.026886	-1.044298	-1.314957	-0.035759	-1.109567	-1.163288	-0.065371	-1.109567	-0.809253	-0.065371	-0.913761	-0.657514	-0.054826	-0.848492	-0.404591	-0.041647	-0.783224	-5.057672	-0.304141	-5.808074	0.000000	0.000000	-16.693714	-0.118432	7.343791	41.555991	0.198994	20.358117	134.559860	89.392137	-8.181880	8.426562	29.830704	-7.366393	10.927466	148.959123	88.200075	-8.594973	3.236473
1.309524	0.066680	-0.764797	89.525885	0.197048	0.624248	0.746738	3.450082	1.090437	-20.549635	0.667495	0.011650	4.621484	15.571595	0.000000	6.967836	-0.400108	-13.702738	5.006563	0.087381	4.690289	2.514789	0.000000	-0.696913	-0.016151	-1.025820	-1.294237	-0.021480	-1.089934	-1.144958	-0.039268	-1.089934	-0.796502	-0.039268	-0.897593	-0.647153	-0.032934	-0.833479	-0.398216	-0.025017	-0.769365	-4.977980	-0.182698	-5.705304	0.000000	0.000000	-17.063979	-0.467876	7.310254	41.216515	0.132525	20.765216	133.836194	89.403826	-8.533043	7.099664	28.856037	-7.310848	10.690133	149.166389	88.131791	-8.497093	3.411933
1.333333	0.000018	-1.008515	89.418260	0.197126	0.624126	0.746601	3.686320	1.041909	-20.658350	0.642528	0.011214	4.352735	15.663531	0.000000	7.135117	-0.347088	-14.220580	4.796409	0.083713	4.691500	3.192223	0.000000	-0.682855	-0.011689	-0.986079	-1.268130	-0.015546	-1.047709	-1.121863	-0.028420	-1.047709	-0.780435	-0.028420	-0.862819	-0.634099	-0.023836	-0.801189	-0.390183	-0.018106	-0.739559	-4.877565	-0.132226	-5.484276	0.000000	0.000000	-17.485864	-0.722899	7.138343	40.836842	0.115997	21.036566	133.097374	89.419161	-8.831885	5.773050	28.005837	-7.304209	10.550357	149.319793	88.037495	-8.397526	3.640132
1.357143	-0.091727	-1.216946	89.326888	0.197293	0.623987	0.746442	3.879582	0.974835	-20.789136	0.612047	0.010682	4.110651	15.764943	0.000000	7.276369	-0.276330	-14.673551	4.602175	0.080323	4.664272	3.801708	0.000000	-0.668003	-0.010338	-0.935875	-1.240548	-0.013750	-0.994367	-1.097462	-0.025136	-0.994367	-0.763461	-0.025136	-0.818890	-0.620308	-0.021081	-0.760398	-0.381697	-0.016014	-0.701906	-4.771479	-0.116946	-5.205054	0.000000	0.000000	-17.936907	-0.957616	6.897705	40.456516	0.169219	21.224157	132.341380	89.439316	-9.071781	4.441181	27.236497	-7.335880	10.443894	149.434970	87.915844	-8.295604	3.848210
1.380952	-0.206462	-1.395169	89.264325	0.197549	0.623819	0.746294	4.039041	0.890300	-20.949146	0.577724	0.010083	3.903538	15.871881	0.000000	7.401012	-0.189278	-15.036526	4.428118	0.077285	4.617869	4.331962	0.000000	-0.652905	-0.013617	-0.870575	-1.212510	-0.018111	-0.924986	-1.072658	-0.033109	-0.924986	-0.746205	-0.033109	-0.761753	-0.606288	-0.027768	-0.707342	-0.373070	-0.021093	-0.652931	-4.663637	-0.154040	-4.841877	0.000000	0.000000	-18.365126	-1.071863	6.566943	40.062877	0.278981	21.287162	131.642395	89.462360	-9.283347	3.155400	26.583025	-7.378218	10.422856	149.493453	87.767272	-8.189602	4.052960
